<svg xmlns="http://www.w3.org/2000/svg" xmlns:xlink="http://www.w3.org/1999/xlink" version="1.1" width="256" height="256" viewBox="0 0 256 256" xml:space="preserve">

<defs>
</defs>
<g style="stroke: none; stroke-width: 0; stroke-dasharray: none; stroke-linecap: butt; stroke-linejoin: miter; stroke-miterlimit: 10; fill: none; fill-rule: nonzero; opacity: 1;" transform="translate(1.4065934065934016 1.4065934065934016) scale(2.81 2.81)" >
	<path d="M 78.672 23.085 h -7.517 c -4.221 0 -7.654 -3.434 -7.654 -7.654 V 7.915 h 4 v 7.517 c 0 2.015 1.64 3.654 3.654 3.654 h 7.517 V 23.085 z" style="stroke: none; stroke-width: 1; stroke-dasharray: none; stroke-linecap: butt; stroke-linejoin: miter; stroke-miterlimit: 10; fill: rgb(0,0,0); fill-rule: nonzero; opacity: 1;" transform=" matrix(1 0 0 1 0 0) " stroke-linecap="round" />
	<path d="M 67.501 7.915 h -4 C 63.501 5.756 61.745 4 59.586 4 V 0 C 63.95 0 67.501 3.551 67.501 7.915 z" style="stroke: none; stroke-width: 1; stroke-dasharray: none; stroke-linecap: butt; stroke-linejoin: miter; stroke-miterlimit: 10; fill: rgb(0,0,0); fill-rule: nonzero; opacity: 1;" transform=" matrix(1 0 0 1 0 0) " stroke-linecap="round" />
	<path d="M 86.587 27.001 h -4 c 0 -2.159 -1.756 -3.916 -3.915 -3.916 v -4 C 83.036 19.085 86.587 22.636 86.587 27.001 z" style="stroke: none; stroke-width: 1; stroke-dasharray: none; stroke-linecap: butt; stroke-linejoin: miter; stroke-miterlimit: 10; fill: rgb(0,0,0); fill-rule: nonzero; opacity: 1;" transform=" matrix(1 0 0 1 0 0) " stroke-linecap="round" />
	<path d="M 46.875 24.01 H 10.799 c -4.073 0 -7.386 -3.313 -7.386 -7.386 h 4 c 0 1.867 1.519 3.386 3.386 3.386 h 36.076 V 24.01 z" style="stroke: none; stroke-width: 1; stroke-dasharray: none; stroke-linecap: butt; stroke-linejoin: miter; stroke-miterlimit: 10; fill: rgb(0,0,0); fill-rule: nonzero; opacity: 1;" transform=" matrix(1 0 0 1 0 0) " stroke-linecap="round" />
	<path d="M 7.413 16.944 h -4 c 0 -4.073 3.313 -7.386 7.386 -7.386 h 6.989 v 4 h -6.989 C 8.932 13.558 7.413 15.077 7.413 16.944 z" style="stroke: none; stroke-width: 1; stroke-dasharray: none; stroke-linecap: butt; stroke-linejoin: miter; stroke-miterlimit: 10; fill: rgb(0,0,0); fill-rule: nonzero; opacity: 1;" transform=" matrix(1 0 0 1 0 0) " stroke-linecap="round" />
	<path d="M 55.009 51.736 H 10.799 c -4.073 0 -7.386 -3.313 -7.386 -7.386 V 16.624 h 4 V 44.35 c 0 1.867 1.519 3.386 3.386 3.386 h 44.209 c 1.867 0 3.387 -1.52 3.387 -3.386 V 27.396 c 0 -1.867 -1.52 -3.386 -3.387 -3.386 H 23.062 v -4 h 31.947 c 4.073 0 7.387 3.313 7.387 7.386 V 44.35 C 62.396 48.423 59.082 51.736 55.009 51.736 z" style="stroke: none; stroke-width: 1; stroke-dasharray: none; stroke-linecap: butt; stroke-linejoin: miter; stroke-miterlimit: 10; fill: rgb(0,0,0); fill-rule: nonzero; opacity: 1;" transform=" matrix(1 0 0 1 0 0) " stroke-linecap="round" />
	<path d="M 79.506 90 H 22.974 c -3.904 0 -7.081 -3.177 -7.081 -7.081 V 49.736 h 4 v 33.183 c 0 1.699 1.382 3.081 3.081 3.081 h 56.532 c 1.699 0 3.081 -1.382 3.081 -3.081 V 20.635 c 0 -2.185 -0.852 -4.24 -2.396 -5.786 l -8.453 -8.454 C 70.192 4.851 68.137 4 65.951 4 H 22.974 c -1.699 0 -3.081 1.382 -3.081 3.081 V 22.01 h -4 V 7.081 C 15.893 3.176 19.069 0 22.974 0 h 42.978 c 3.255 0 6.313 1.267 8.614 3.568 l 8.453 8.454 c 2.301 2.301 3.568 5.36 3.568 8.614 v 62.284 C 86.587 86.823 83.41 90 79.506 90 z" style="stroke: none; stroke-width: 1; stroke-dasharray: none; stroke-linecap: butt; stroke-linejoin: miter; stroke-miterlimit: 10; fill: rgb(0,0,0); fill-rule: nonzero; opacity: 1;" transform=" matrix(1 0 0 1 0 0) " stroke-linecap="round" />
	<path d="M 21.708 26.18 h -5.489 c -1.104 0 -2 0.896 -2 2 v 9.1 v 6.231 c 0 1.104 0.896 2 2 2 s 2 -0.896 2 -2 V 39.28 h 3.489 c 2.548 0 4.622 -2.073 4.622 -4.621 v -3.858 C 26.329 28.253 24.256 26.18 21.708 26.18 z M 22.329 34.659 c 0 0.342 -0.279 0.621 -0.622 0.621 h -3.489 v -5.1 h 3.489 c 0.343 0 0.622 0.279 0.622 0.621 V 34.659 z" style="stroke: none; stroke-width: 1; stroke-dasharray: none; stroke-linecap: butt; stroke-linejoin: miter; stroke-miterlimit: 10; fill: rgb(0,0,0); fill-rule: nonzero; opacity: 1;" transform=" matrix(1 0 0 1 0 0) " stroke-linecap="round" />
	<path d="M 35.554 26.18 h -5.22 c -1.104 0 -2 0.896 -2 2 v 15.332 c 0 1.104 0.896 2 2 2 h 5.22 c 2.697 0 4.891 -2.194 4.891 -4.891 v -9.55 C 40.445 28.374 38.251 26.18 35.554 26.18 z M 36.445 40.621 c 0 0.491 -0.4 0.891 -0.891 0.891 h -3.22 V 30.18 h 3.22 c 0.491 0 0.891 0.399 0.891 0.891 V 40.621 z" style="stroke: none; stroke-width: 1; stroke-dasharray: none; stroke-linecap: butt; stroke-linejoin: miter; stroke-miterlimit: 10; fill: rgb(0,0,0); fill-rule: nonzero; opacity: 1;" transform=" matrix(1 0 0 1 0 0) " stroke-linecap="round" />
	<path d="M 52.841 26.18 h -8.11 c -1.104 0 -2 0.896 -2 2 v 15.332 c 0 1.104 0.896 2 2 2 s 2 -0.896 2 -2 v -5.666 h 3.312 c 1.104 0 2 -0.896 2 -2 s -0.896 -2 -2 -2 H 46.73 V 30.18 h 6.11 c 1.104 0 2 -0.896 2 -2 S 53.945 26.18 52.841 26.18 z" style="stroke: none; stroke-width: 1; stroke-dasharray: none; stroke-linecap: butt; stroke-linejoin: miter; stroke-miterlimit: 10; fill: rgb(0,0,0); fill-rule: nonzero; opacity: 1;" transform=" matrix(1 0 0 1 0 0) " stroke-linecap="round" />
	<path d="M 46.493 68.659 c -0.781 0.781 -2.048 0.781 -2.829 0 l -4.217 -4.165 V 78.44 c 0 1.104 -0.896 2 -2 2 s -2 -0.896 -2 -2 V 64.442 l -4.217 4.217 c -0.781 0.781 -2.048 0.781 -2.828 0 c -0.781 -0.781 -0.781 -2.047 0 -2.828 l 6.179 -6.179 c 0.695 -0.695 1.583 -1.066 2.493 -1.15 c 0.121 -0.023 0.245 -0.038 0.373 -0.038 c 0.134 0 0.264 0.014 0.39 0.039 c 0.904 0.087 1.785 0.458 2.476 1.148 l 6.179 6.179 C 47.273 66.612 47.273 67.878 46.493 68.659 z" style="stroke: none; stroke-width: 1; stroke-dasharray: none; stroke-linecap: butt; stroke-linejoin: miter; stroke-miterlimit: 10; fill: rgb(0,0,0); fill-rule: nonzero; opacity: 1;" transform=" matrix(1 0 0 1 0 0) " stroke-linecap="round" />
</g>
</svg>